<svg xmlns="http://www.w3.org/2000/svg" xml:space="preserve" width="1623.711" height="1279.997" style="shape-rendering:geometricPrecision;text-rendering:geometricPrecision;image-rendering:optimizeQuality;fill-rule:evenodd;clip-rule:evenodd" viewBox="0 0 11294.7 8903.77" id="home">
  <g id="Layer_x0020_1">
    <g id="_2165191685904">
      <path d="M103.12 8903.77c-56.95,0 -103.12,-46.17 -103.12,-103.12 0,-56.95 46.17,-103.12 103.12,-103.12l11088.45 0c56.95,0 103.12,46.17 103.12,103.12 0,56.95 -46.17,103.12 -103.12,103.12l-11088.45 0z" style="fill:#000;fill-rule:nonzero"></path>
      <path d="M1064.5 8697.53l9373.39 0 0 -5228.8 -9373.39 -3221.24 0 8450.04zm9476.51 206.24l-9579.63 0c-56.95,0 -103.12,-46.17 -103.12,-103.12l0 -8697.57c0.04,-11.09 1.84,-22.36 5.64,-33.43 18.46,-53.84 77.08,-82.51 130.91,-64.05l9575.71 3290.77c42.57,12.7 73.61,52.13 73.61,98.83l0 5405.45c0,56.95 -46.17,103.12 -103.12,103.12z" style="fill:#000;fill-rule:nonzero"></path>
      <path d="m2316.15 8697.53 2789.86 0 0-4667.37-2789.86 0 0 4667.37zm2892.98 206.24-2996.1 0c-56.95 0-103.12-46.17-103.12-103.12l0-4873.61c0-56.95 46.17-103.12 103.12-103.12l2996.1 0c56.95 0 103.12 46.17 103.12 103.12l0 4873.61c0 56.95-46.17 103.12-103.12 103.12zM9300.97 2860.08l0-1822.9-3216.97 0 0 717.36 3216.97 1105.54zm206.24-1926.02 0 2070.44c-.04 11.09-1.84 22.36-5.64 33.43-18.47 53.83-77.08 82.51-130.92 64.04l-3419.29-1175.07c-42.57-12.7-73.61-52.13-73.61-98.83l0-894.01c0-56.95 46.17-103.12 103.12-103.12l3423.22 0c56.95 0 103.12 46.17 103.12 103.12z" style="fill:#000;fill-rule:nonzero"></path>
      <path d="M4917.77 1037.19c-56.95 0-103.12-46.17-103.12-103.12 0-56.95 46.17-103.12 103.12-103.12l5549.43 0c56.95 0 103.12 46.17 103.12 103.12 0 56.95-46.17 103.12-103.12 103.12l-5549.43 0zM6184.83 4090.03l1350.17 0c56.95 0 103.12 46.17 103.12 103.12l0 1350.17c0 56.95-46.17 103.12-103.12 103.12l-1350.17 0c-56.95 0-103.12-46.17-103.12-103.12l0-1350.17c0-56.95 46.17-103.12 103.12-103.12zm1247.05 206.24-1143.93 0 0 1143.93 1143.93 0 0-1143.93z" style="fill:#000;fill-rule:nonzero"></path>
      <path d="M7535 4090.03l1350.17 0c56.95,0 103.12,46.17 103.12,103.12l0 1350.17c0,56.95 -46.17,103.12 -103.12,103.12l-1350.17 0c-56.95,0 -103.12,-46.17 -103.12,-103.12l0 -1350.17c0,-56.95 46.17,-103.12 103.12,-103.12zm1247.05 206.24l-1143.92 0 0 1143.93 1143.92 0 0 -1143.93z" style="fill:#000;fill-rule:nonzero"></path>
      <path d="M6184.83 5440.2l1350.17 0c56.95,0 103.12,46.17 103.12,103.12l0 1350.17c0,56.95 -46.17,103.12 -103.12,103.12l-1350.17 0c-56.95,0 -103.12,-46.17 -103.12,-103.12l0 -1350.17c0,-56.95 46.17,-103.12 103.12,-103.12zm1247.05 206.24l-1143.93 0 0 1143.93 1143.93 0 0 -1143.93z" style="fill:#000;fill-rule:nonzero"></path>
      <path d="M7535 5440.2l1350.17 0c56.95,0 103.12,46.17 103.12,103.12l0 1350.17c0,56.95 -46.17,103.12 -103.12,103.12l-1350.17 0c-56.95,0 -103.12,-46.17 -103.12,-103.12l0 -1350.17c0,-56.95 46.17,-103.12 103.12,-103.12zm1247.05 206.24l-1143.92 0 0 1143.93 1143.92 0 0 -1143.93z" style="fill:#000;fill-rule:nonzero"></path>
    </g>
  </g>
</svg>
